<?xml version="1.0" encoding="utf-8"?><svg viewBox="0 0 40 40" xmlns="http://www.w3.org/2000/svg" xmlns:xlink="http://www.w3.org/1999/xlink"><style>:root>svg{display:none}:root>svg:target{display:block}</style><svg viewBox="0 0 40 40" id="location" xmlns="http://www.w3.org/2000/svg"><path opacity=".8" d="M24.406 25.006c-.445-.023-.867.165-1.101.54l-3.727 5.812-3.726-5.812a1.151 1.151 0 00-1.102-.54C6.992 25.826 2 28.476 2 31.78c0 4.57 9.047 7.031 17.578 7.031 8.531 0 17.578-2.46 17.578-7.031 0-3.305-4.992-5.953-12.75-6.774z"/><path fill-rule="evenodd" clip-rule="evenodd" d="M18.986 31.98l.514-.73-.514.73zm1.028 0l.004-.002.009-.007.027-.02.105-.076a32.839 32.839 0 001.735-1.387 38.763 38.763 0 004.085-4.054C28.932 23.018 32 18.142 32 12.568c0-3.33-1.316-6.527-3.659-8.884A12.466 12.466 0 0019.5 0a12.466 12.466 0 00-8.841 3.683A12.605 12.605 0 007 12.569c0 5.573 3.068 10.449 6.021 13.865a38.754 38.754 0 004.085 4.053c.557.476 1.023.847 1.351 1.099.161.124.324.246.488.366l.03.02.007.006.004.002a.894.894 0 001.028 0zm-.514-.73l.514.73-.514-.73zm4.464-18.75a4.464 4.464 0 11-8.928 0 4.464 4.464 0 018.928 0z"/><defs><radialGradient id="apaint0_radial_1_648" cx="0" cy="0" r="1" gradientUnits="userSpaceOnUse" gradientTransform="matrix(0 6.90557 -17.5781 0 19.578 31.906)"><stop stop-color="#217C01"/><stop stop-color="#1E7500"/><stop offset="1" stop-color="#E9FFE1" stop-opacity="0"/></radialGradient><linearGradient id="apaint1_linear_1_648" x1="19.5" y1="0" x2="57.333" y2="43.011" gradientUnits="userSpaceOnUse"><stop stop-color="#81CD7E"/><stop offset="1" stop-color="#3A9B3A"/></linearGradient></defs></svg><svg viewBox="0 0 24 24" id="phone" xmlns="http://www.w3.org/2000/svg"><path d="M16.222 16.814l1.968-1.967a1.923 1.923 0 012.055-.422l2.399.957a1.915 1.915 0 011.194 1.757v4.393a1.906 1.906 0 01-2.003 1.889C5.03 22.375 1.64 8.144.998 2.697A1.906 1.906 0 012.904.58h4.243a1.898 1.898 0 011.757 1.195l.958 2.398a1.898 1.898 0 01-.413 2.056L7.481 8.196s1.133 7.67 8.741 8.618z"/></svg><svg viewBox="0 0 30 32" id="tick" xmlns="http://www.w3.org/2000/svg"><path d="M15 1.78l3.715 2.71 4.599-.008 1.412 4.375 3.725 2.696-1.429 4.37 1.43 4.37-3.726 2.696-1.412 4.376-4.599-.009-3.714 2.71-3.715-2.71-4.599.009-1.412-4.376-3.725-2.696 1.429-4.37-1.43-4.37 3.726-2.696 1.412-4.375 4.599.008L15 1.78z" stroke="currentColor" stroke-width="2.829" stroke-linecap="round" stroke-linejoin="round"/><path d="M10.05 15.923l3.536 3.536 7.072-7.071" stroke="currentColor" stroke-width="2.829" stroke-linecap="round" stroke-linejoin="round"/></svg><svg viewBox="0 0 27 27" id="user" xmlns="http://www.w3.org/2000/svg"><path d="M2.819 26.194s-2.167 0-2.167-2.167c0-2.166 2.167-8.666 13-8.666 10.834 0 13 6.5 13 8.666 0 2.167-2.166 2.167-2.166 2.167H2.819zm10.833-13a6.5 6.5 0 100-13 6.5 6.5 0 000 13z"/></svg></svg>