<svg width="40" height="40" viewBox="0 0 40 40" fill="none" xmlns="http://www.w3.org/2000/svg">
<path opacity="0.8" d="M24.4062 25.0064C23.9609 24.983 23.5391 25.1705 23.3048 25.5456L19.5781 31.358L15.8515 25.5456C15.6172 25.1705 15.1953 24.9596 14.75 25.0064C6.99219 25.8268 2 28.4753 2 31.7799C2 36.3502 11.0469 38.8111 19.5781 38.8111C28.1094 38.8111 37.1562 36.3502 37.1562 31.7799C37.1562 28.4753 32.1641 25.8268 24.4062 25.0064Z" fill="url(#paint0_radial_1_648)"/>
<path fill-rule="evenodd" clip-rule="evenodd" d="M18.9857 31.9795L19.5 31.25L18.9857 31.9795ZM20.0143 31.9795L20.0179 31.9777L20.0268 31.9714L20.0536 31.9509L20.1589 31.875C20.2482 31.8089 20.3786 31.7125 20.5429 31.5857C20.8714 31.3339 21.3375 30.9634 21.8938 30.4875C23.3539 29.2394 24.7193 27.8845 25.9786 26.4339C28.9321 23.0179 32 18.142 32 12.5679C32 9.2375 30.6839 6.04107 28.3411 3.68393C27.1831 2.51731 25.8058 1.59124 24.2885 0.958996C22.7711 0.326756 21.1438 0.0008378 19.5 0C17.8563 0.000720843 16.229 0.326498 14.7117 0.958583C13.1943 1.59067 11.817 2.51658 10.6589 3.68304C8.31377 6.04557 6.99843 9.23989 7 12.5687C7 18.142 10.0679 23.0179 13.0214 26.4339C14.2807 27.8845 15.6461 29.2394 17.1063 30.4875C17.6634 30.9634 18.1286 31.3339 18.4571 31.5857C18.6183 31.7099 18.7811 31.8319 18.9455 31.9518L18.9741 31.9714L18.9821 31.9777L18.9857 31.9795C19.2938 32.1964 19.7063 32.1964 20.0143 31.9795V31.9795ZM19.5 31.25L20.0143 31.9795L19.5 31.25ZM23.9643 12.5C23.9643 13.684 23.4939 14.8195 22.6567 15.6567C21.8195 16.4939 20.684 16.9643 19.5 16.9643C18.316 16.9643 17.1805 16.4939 16.3433 15.6567C15.5061 14.8195 15.0357 13.684 15.0357 12.5C15.0357 11.316 15.5061 10.1805 16.3433 9.34327C17.1805 8.50606 18.316 8.03571 19.5 8.03571C20.684 8.03571 21.8195 8.50606 22.6567 9.34327C23.4939 10.1805 23.9643 11.316 23.9643 12.5V12.5Z" fill="url(#paint1_linear_1_648)"/>
<defs>
<radialGradient id="paint0_radial_1_648" cx="0" cy="0" r="1" gradientUnits="userSpaceOnUse" gradientTransform="translate(19.5781 31.9056) rotate(90) scale(6.90557 17.5781)">
<stop stop-color="#217C01"/>
<stop stop-color="#1E7500"/>
<stop offset="1" stop-color="#E9FFE1" stop-opacity="0"/>
</radialGradient>
<linearGradient id="paint1_linear_1_648" x1="19.5" y1="1.97965e-06" x2="57.333" y2="43.0107" gradientUnits="userSpaceOnUse">
<stop stop-color="#81CD7E"/>
<stop offset="1" stop-color="#3A9B3A"/>
</linearGradient>
</defs>
</svg>
