<svg width="10" height="8" viewBox="0 0 10 8" fill="none" xmlns="http://www.w3.org/2000/svg">
<path d="M8.4027 0.443601C8.45913 0.386015 8.52649 0.340267 8.60083 0.309036C8.67517 0.277805 8.75499 0.261719 8.83562 0.261719C8.91626 0.261719 8.99608 0.277805 9.07041 0.309036C9.14475 0.340267 9.21211 0.386015 9.26855 0.443601C9.50507 0.682601 9.50838 1.0688 9.27682 1.31194L4.38684 7.09258C4.33132 7.15355 4.26395 7.20255 4.18884 7.23658C4.11374 7.27061 4.03248 7.28897 3.95003 7.29051C3.86759 7.29206 3.7857 7.27677 3.70937 7.24559C3.63304 7.2144 3.56387 7.16796 3.5061 7.10912L0.530599 4.09393C0.415843 3.9769 0.351562 3.81953 0.351562 3.65562C0.351562 3.49172 0.415843 3.33435 0.530599 3.21732C0.587037 3.15973 0.654398 3.11398 0.728735 3.08275C0.803073 3.05152 0.882895 3.03544 0.963527 3.03544C1.04416 3.03544 1.12398 3.05152 1.19832 3.08275C1.27266 3.11398 1.34002 3.15973 1.39645 3.21732L3.92042 5.77519L8.38616 0.461795C8.3913 0.455404 8.39682 0.449328 8.4027 0.443601Z" fill="white"/>
</svg>
