<svg width="160" height="53" viewBox="0 0 160 53" fill="none" xmlns="http://www.w3.org/2000/svg">
<path fill-rule="evenodd" clip-rule="evenodd" d="M54.072 25.7104V51.0774H55.9078H57.7435V25.7104V0.343262H55.9078H54.072V25.7104ZM19.6929 0.785184C17.7194 0.911018 15.9546 1.08425 15.771 1.17036C15.5874 1.25648 14.8364 1.40267 14.1021 1.49546C11.8686 1.7775 9.61263 2.18104 9.30238 2.35394C9.14084 2.44406 8.44608 2.60527 7.75866 2.71208C7.07108 2.81906 6.50866 2.96141 6.50866 3.02867C6.50866 3.09593 6.20826 3.20173 5.84111 3.26382L5.17355 3.37663V7.70105C5.17355 10.2374 5.1098 12.0255 5.01918 12.0255C4.8341 12.0255 3.07326 10.297 2.54789 9.59958C1.76568 8.56103 1.56742 8.32055 0.966286 7.67919C0.625666 7.31604 0.268858 7.01881 0.173565 7.01881C0.0781041 7.01881 0 7.28166 0 7.60292C0 7.92418 0.0669221 8.18703 0.148865 8.18703C0.23064 8.18703 0.347629 8.39348 0.408877 8.64598C0.552401 9.23743 1.1744 10.546 1.44075 10.8165C1.55424 10.9319 1.69459 11.1758 1.75267 11.3589C1.81074 11.542 1.91972 11.6917 1.99499 11.6917C2.07009 11.6917 2.18207 12.028 2.24382 12.439C2.32526 12.9826 2.53421 13.3811 3.00917 13.8993C3.50734 14.4429 3.66371 14.7523 3.66705 15.2017C3.67072 15.688 3.80273 15.9071 4.42122 16.4534L5.17088 17.1156L5.17205 24.0415C5.17305 30.5436 5.34078 33.721 5.6829 33.721C5.75166 33.721 5.89785 34.0965 6.008 34.5555C6.11814 35.0144 6.26851 35.3899 6.34211 35.3899C6.41571 35.3899 6.5614 35.5965 6.66587 35.8488C6.92839 36.4834 7.37115 37.2923 7.51083 37.3926C7.57458 37.4385 7.72345 37.6591 7.84144 37.8827C7.95926 38.1064 8.12198 38.3692 8.20275 38.4668C8.28353 38.5645 8.51751 38.8435 8.72261 39.087C8.92755 39.3307 9.24564 39.7287 9.42922 39.9718C10.0484 40.7918 13.9083 44.6015 14.5502 45.0262C14.9003 45.258 15.1869 45.515 15.1869 45.5975C15.1869 45.6799 15.3182 45.7968 15.4789 45.857C15.6397 45.9174 15.8461 46.0536 15.9379 46.1599C16.1941 46.4563 19.5707 48.8418 19.9015 48.96C20.0622 49.0174 20.1935 49.1417 20.1935 49.2365C20.1935 49.3311 20.2737 49.4086 20.3716 49.4086C20.4694 49.4086 20.7957 49.5963 21.0966 49.8258C21.3975 50.0553 21.7304 50.243 21.8364 50.243C21.9425 50.243 22.0293 50.3094 22.0293 50.3904C22.0293 50.4715 22.1607 50.586 22.3214 50.6447C22.4821 50.7036 22.9138 50.9371 23.281 51.1637C23.6481 51.3904 24.1875 51.6878 24.4796 51.8248C24.7716 51.9616 25.0577 52.15 25.1153 52.2432C25.2389 52.4434 26.8691 52.4746 26.8691 52.2769C26.8691 52.2021 27.1319 52.0379 27.4532 51.9119C27.7745 51.7859 28.0373 51.6217 28.0373 51.5469C28.0373 51.4723 28.1408 51.4112 28.2673 51.4112C28.3936 51.4112 28.5899 51.2994 28.7034 51.1627C28.8169 51.026 28.9762 50.9555 29.0575 51.0057C29.139 51.0559 29.2055 51.0364 29.2057 50.9621C29.2059 50.8879 29.6001 50.6075 30.0819 50.3391C30.5637 50.0708 31.2878 49.6013 31.6912 49.2961C32.0944 48.9908 32.5263 48.741 32.6508 48.741C32.7753 48.741 32.8771 48.6641 32.8771 48.5699C32.8771 48.476 33.0648 48.3276 33.2943 48.2403C33.5238 48.1531 33.7115 48.0047 33.7115 47.9107C33.7115 47.8166 33.8055 47.7395 33.9202 47.7395C34.1151 47.7393 34.7873 47.2472 35.3945 46.6602C35.5398 46.5196 35.7464 46.4046 35.8534 46.4046C35.9604 46.4046 36.048 46.3368 36.048 46.254C36.048 46.1713 36.2641 45.9648 36.5281 45.7951C37.3746 45.2514 38.7129 44.0377 40.8247 41.8986C43.1543 39.5388 43.1277 39.5685 43.8083 38.5551C44.0837 38.1452 44.4029 37.7105 44.5176 37.5893C44.6324 37.468 44.7262 37.3043 44.7262 37.2257C44.7262 37.1471 44.8202 36.9834 44.9348 36.862C45.1912 36.591 46.0613 34.8395 46.0613 34.5943C46.0613 34.4965 46.1352 34.3914 46.2257 34.3607C46.3162 34.3302 46.4717 33.8545 46.5713 33.3038C46.6711 32.7531 46.8225 32.1721 46.9078 32.0127C46.9971 31.8455 47.0626 28.2182 47.0626 23.443V15.163L47.6624 14.5632C48.0483 14.1773 48.2938 13.7514 48.3504 13.3699C48.3988 13.0435 48.5274 12.7014 48.6362 12.6096C48.9285 12.3633 49.566 10.9714 49.566 10.5797C49.566 10.3933 49.7115 10.0729 49.8896 9.86777C50.0675 9.6625 50.2646 9.25679 50.3277 8.96607C50.3907 8.67535 50.4904 8.39982 50.5491 8.35392C50.6079 8.30803 50.7861 7.76998 50.9453 7.15833C51.1538 6.35777 51.2349 5.38747 51.2349 3.69539C51.2349 1.44306 51.0613 0.688388 50.8287 1.92871C50.7684 2.24997 50.6556 2.51282 50.5778 2.51282C50.5002 2.51282 50.3941 2.68187 50.342 2.88832C50.2152 3.39182 49.8836 3.80971 48.356 5.39148L47.0626 6.73076V5.04919V3.36779L46.3116 3.25514C45.8986 3.19322 45.5606 3.08625 45.5606 3.01749C45.5606 2.94873 44.9785 2.79936 44.2673 2.68555C43.556 2.57173 42.8988 2.41969 42.807 2.3476C42.7152 2.27533 42.227 2.16419 41.7222 2.10027C41.2174 2.03635 40.3913 1.88331 39.8864 1.75998C39.3816 1.63665 38.4428 1.48278 37.8003 1.41803C37.1578 1.35327 36.5945 1.24413 36.5487 1.17554C36.4247 0.989956 28.1331 0.506646 25.534 0.533348C24.2948 0.546032 21.6663 0.659349 19.6929 0.785184ZM20.9986 2.93171C20.9517 2.97844 19.8691 3.09476 18.5926 3.19005C17.316 3.28551 16.0839 3.43271 15.8544 3.51749C15.625 3.6021 14.6111 3.75697 13.6014 3.86161C12.5918 3.96625 11.7281 4.1031 11.6822 4.16585C11.6363 4.2286 11.0053 4.3773 10.28 4.49629C9.55472 4.61528 8.80372 4.77583 8.61113 4.85293C8.41854 4.93003 8.05439 5.03717 7.80205 5.09125L7.34311 5.18938V9.35526V13.5211L7.80205 13.6299C8.05439 13.6897 8.57809 13.8798 8.9656 14.0523C9.35328 14.2249 10.121 14.4132 10.6717 14.4707C11.2224 14.5283 11.6373 14.6333 11.5936 14.704C11.508 14.8427 13.2082 14.9866 16.0509 15.0812C17.6663 15.1349 17.8402 15.1119 17.9128 14.8347C17.995 14.5205 18.8584 14.3803 18.8584 14.681C18.8584 14.7648 19.1585 14.8839 19.5252 14.9459C19.8918 15.0078 20.2294 15.1196 20.2757 15.1942C20.3217 15.2686 20.754 15.4212 21.2361 15.533C23.1265 15.9712 27.758 18.5655 28.6289 19.674C28.7249 19.7962 29.0582 19.9088 29.3694 19.9243C29.9958 19.9557 29.8958 20.1511 30.4649 17.7831C30.6193 17.1406 30.8497 16.4964 30.9769 16.3514C31.1041 16.2065 31.2082 16.0088 31.2082 15.912C31.2082 15.6722 31.7896 15.5351 32.818 15.5325C33.6211 15.5303 33.7132 15.5744 34.2366 16.2107C34.5445 16.585 34.9278 17.0148 35.0884 17.1657C35.4387 17.4948 35.4742 18.0335 35.1458 18.0335C34.9932 18.0335 34.9415 18.1503 34.9983 18.3672C35.0463 18.5508 35.1301 18.701 35.1843 18.701C35.3002 18.701 36.6495 17.2659 37.1328 16.6284C37.3163 16.3864 37.6918 15.9345 37.9672 15.6243C38.2426 15.314 38.6556 14.826 38.8851 14.5402C39.1146 14.2541 39.6952 13.6351 40.1751 13.1647C40.6553 12.694 41.0964 12.1572 41.1553 11.9716C41.2915 11.5422 41.4575 11.3301 42.4368 10.3339C42.8757 9.88746 43.3038 9.52214 43.3881 9.52214C43.4724 9.52214 43.6014 9.42134 43.6748 9.29801C43.7482 9.17485 44.0174 8.9392 44.2728 8.77448C44.7365 8.47558 44.7372 8.47208 44.69 6.78734L44.6428 5.09959L44.1421 5.04318C43.8667 5.01198 43.5663 4.92803 43.4745 4.85643C43.3827 4.78484 42.6693 4.6268 41.8891 4.50513C41.1089 4.38364 40.433 4.23227 40.3871 4.16902C40.3412 4.1056 39.6653 3.97209 38.8851 3.87229C38.1049 3.77233 37.2037 3.65317 36.8824 3.60727C36.5612 3.56138 35.5473 3.44556 34.6294 3.34993C33.7115 3.2543 32.4522 3.10193 31.8309 3.01131C30.6882 2.84476 21.1557 2.77466 20.9986 2.93171ZM64.7529 9.35209C64.7529 10.1239 64.7202 10.1904 64.2939 10.281C63.2839 10.4961 62.1833 11.1323 61.4927 11.9003C60.4526 13.0572 60.198 13.9646 60.2717 16.2521C60.3273 17.9716 60.3722 18.1885 60.8488 19.0348C61.4897 20.1728 62.4833 20.9549 63.7679 21.3324L64.7524 21.6216L64.7527 22.4143C64.7527 22.8504 64.828 23.212 64.9198 23.2182C65.0115 23.2242 65.481 23.2346 65.9628 23.2411L66.839 23.2529L66.8884 22.4252L66.9378 21.5972L67.7505 21.3889C69.5189 20.9358 70.8618 19.6366 71.3703 17.8871C71.6816 16.8167 71.6112 14.2623 71.248 13.444C70.5316 11.8304 69.2757 10.7209 67.7514 10.3553L66.9224 10.1565V9.33857V8.52081H65.8376H64.7529V9.35209ZM152.369 8.8853C152.369 9.31487 153.091 10.5393 153.527 10.8499C154.573 11.5942 156.402 11.6438 157.423 10.9557C158.084 10.51 158.711 9.59741 158.711 9.08022C158.711 8.72659 158.637 8.6877 157.965 8.6877C157.311 8.6877 157.187 8.74745 156.969 9.16817C156.678 9.73176 156.416 9.85592 155.519 9.85592C155.039 9.85592 154.745 9.74344 154.448 9.44621C154.223 9.22091 154.038 8.95806 154.038 8.8621C154.038 8.76414 153.673 8.6877 153.204 8.6877C152.672 8.6877 152.369 8.75946 152.369 8.8853ZM63.9488 12.5311C62.4962 13.4168 62.1382 17.0642 63.3482 18.6506C63.5795 18.9539 63.9902 19.3165 64.2609 19.4565L64.7529 19.7109V15.9517C64.7529 13.8841 64.6966 12.1927 64.6277 12.193C64.5588 12.1934 64.2534 12.3456 63.9488 12.5311ZM66.9224 15.958V19.7237L67.5703 19.3596C68.5342 18.8178 68.974 17.9095 69.0586 16.2851C69.1497 14.5382 68.8952 13.6253 68.0943 12.8242C66.9346 11.6647 66.9224 11.6974 66.9224 15.958ZM95.1593 12.4988C93.8756 12.9569 92.7902 14.1031 92.7902 15.0003C92.7902 15.3454 93.3493 15.5301 94.3933 15.5301C94.8524 15.5301 94.9724 15.4545 95.0587 15.1102C95.3017 14.1423 96.7593 13.6765 97.3843 14.3671C97.553 14.5535 97.7378 15.0695 97.7947 15.5138L97.8983 16.3214L96.6376 16.4131C94.2453 16.5872 92.9913 17.3741 92.5195 18.9968C92.0627 20.5682 92.6323 22.189 93.8436 22.7638C95.1098 23.3646 96.9981 22.9589 97.7733 21.9195L98.1201 21.4547L98.1253 22.164L98.1306 22.8732H99.2109H100.291L100.205 19.0765C100.1 14.5068 100.047 14.0093 99.6084 13.451C98.7648 12.3786 96.7216 11.9414 95.1593 12.4988ZM114.27 12.4614C113.251 12.7746 112.287 13.7272 111.906 14.797C111.474 16.0133 111.378 18.5368 111.715 19.8694C112.262 22.0373 113.41 23.0326 115.367 23.0375C116.697 23.0406 117.374 22.7936 118.111 22.0363C118.686 21.4455 119.218 20.1209 119.129 19.4976C119.081 19.1575 118.971 19.1132 118.069 19.0695L117.062 19.0208L116.869 19.7371C116.583 20.7928 116.294 21.1042 115.598 21.1042C114.419 21.1042 113.985 20.181 113.986 17.6803C113.987 15.9247 114.186 14.9953 114.663 14.518C115.055 14.1264 116.025 14.0889 116.387 14.451C116.635 14.6992 116.986 15.7085 116.988 16.1787C116.989 16.3577 117.164 16.3859 117.763 16.3038C118.189 16.2454 118.677 16.1977 118.848 16.1977C119.624 16.1977 118.829 13.7591 117.8 12.9819C117.205 12.5327 116.177 12.1872 115.487 12.2049C115.258 12.2107 114.71 12.3262 114.27 12.4614ZM122.699 12.4983C121.261 13.0108 120.591 13.8487 120.161 15.675C119.914 16.7232 120.021 19.4457 120.348 20.4315C120.65 21.3419 121.829 22.5979 122.631 22.8626C123.025 22.9926 123.766 23.0532 124.472 23.0133C126.034 22.925 126.873 22.3664 127.576 20.9468C128.01 20.0698 128.077 19.7346 128.14 18.1031C128.222 15.9671 127.973 14.8309 127.189 13.7476C126.251 12.4532 124.328 11.9182 122.699 12.4983ZM73.4311 17.6997V22.8732H74.5993H75.7675V22.329C75.7675 21.9574 76.0162 21.4151 76.5519 20.6184C76.9833 19.9769 77.6217 18.965 77.9705 18.3699L78.6046 17.2878V20.0805V22.8732H79.7729H80.9411V17.6997V12.5261H79.7729H78.6046V13.2127C78.6046 13.786 78.3705 14.2721 77.1861 16.1575L75.7675 18.4156V15.4709V12.5261H74.5993H73.4311V17.6997ZM83.1106 17.6997V22.8732H84.2789H85.4471V20.6202V18.3672H86.8656H88.2842V20.6202V22.8732H89.4524H90.6206V17.6997V12.5261H89.4524H88.2842V14.5288V16.5315H86.8656H85.4471V14.5288V12.5261H84.2789H83.1106V17.6997ZM102.303 17.6997V22.8732H103.471H104.639V20.6202V18.3672H106.058H107.476V20.6202V22.8732H108.645H109.813V17.6997V12.5261H108.645H107.476V14.5288V16.5315H106.058H104.639V14.5288V12.5261H103.471H102.303V17.6997ZM129.993 12.5956C129.954 12.6336 129.944 14.9664 129.969 17.7795L130.016 22.8943L133.004 22.842C135.714 22.7946 136.034 22.7579 136.451 22.4457C137.239 21.8572 137.567 21.2721 137.646 20.3163C137.743 19.1458 137.366 18.3287 136.487 17.8047L135.832 17.4141L136.265 17.1306C137.316 16.4422 137.65 14.9372 137.024 13.7107C136.493 12.669 135.984 12.5261 132.804 12.5261C131.296 12.5261 130.031 12.5574 129.993 12.5956ZM139.352 17.6997V22.8732H141.904C144.219 22.8732 144.524 22.8385 145.196 22.4977C146.259 21.9587 146.612 21.2626 146.612 19.7024C146.612 18.2459 146.274 17.3976 145.465 16.8202C145.029 16.5094 144.674 16.4385 143.316 16.3906L141.689 16.3334V14.4297V12.5261H140.52H139.352V17.6997ZM147.196 17.6997V22.8732H148.448H149.699V17.6997V12.5261H148.448H147.196V17.6997ZM151.869 17.6997V22.8732H153.037H154.205V22.2968C154.205 21.8709 154.484 21.2903 155.273 20.0745C155.861 19.1695 156.499 18.1344 156.692 17.7746L157.042 17.1206V19.9969V22.8732H158.211H159.379V17.6997V12.5261H158.211H157.042V13.1536C157.042 13.6511 156.757 14.2369 155.666 15.9771L154.289 18.1727L154.243 15.3494L154.197 12.5261H153.033H151.869V17.6997ZM123.498 14.2419C122.781 14.6004 122.482 15.7952 122.547 18.0335C122.609 20.192 122.852 20.8998 123.618 21.1575C124.932 21.5997 125.55 20.7097 125.642 18.2433C125.728 15.9195 125.585 15.0882 124.998 14.5016C124.48 13.9836 124.134 13.9235 123.498 14.2419ZM132.314 15.5305L132.259 16.8661L133.386 16.8656C134.29 16.8653 134.578 16.7992 134.846 16.5315C135.254 16.1238 135.293 15.0976 134.92 14.566C134.695 14.2439 134.509 14.195 133.514 14.195H132.368L132.314 15.5305ZM96.0445 18.1218C95.6774 18.2539 95.3601 18.3634 95.3396 18.3647C95.3189 18.3661 95.1875 18.5889 95.0475 18.8596C94.4135 20.0855 95.0709 21.5243 96.1648 21.3055C97.1218 21.1141 97.6066 20.3759 97.7885 18.833L97.9025 17.8666L97.3072 17.8739C96.9799 17.8779 96.4117 17.9894 96.0445 18.1218ZM141.689 19.5355V21.0375H142.69C144.002 21.0375 144.359 20.716 144.359 19.5355C144.359 18.3549 144.002 18.0335 142.69 18.0335H141.689V19.5355ZM132.259 19.6189V21.0375H133.469C134.457 21.0375 134.741 20.9761 135.013 20.7037C135.424 20.2923 135.465 19.1114 135.087 18.5714C134.857 18.2426 134.681 18.2004 133.543 18.2004H132.259V19.6189ZM44.4759 18.7618C44.3841 18.8661 44.1212 19.2381 43.8918 19.5885C43.6623 19.939 43.193 20.3724 42.8487 20.5517C42.5046 20.7307 42.2229 20.951 42.2229 21.0408C42.2229 21.1308 42.0867 21.2044 41.9203 21.2044C41.7539 21.2044 41.4044 21.427 41.1438 21.699C40.8831 21.9712 40.6099 22.1568 40.5368 22.1116C40.4637 22.0665 40.3203 22.1853 40.2184 22.3759C40.1164 22.5665 39.8499 22.792 39.6259 22.8771C39.4021 22.9622 39.2189 23.1464 39.2189 23.2863C39.2189 23.4267 39.0742 23.5408 38.8963 23.5408C38.7189 23.5408 38.5273 23.6872 38.4705 23.8661C38.4138 24.045 38.2022 24.2434 38.0004 24.3072C37.7985 24.3709 37.5353 24.5625 37.4153 24.7329C37.2955 24.9034 37.0889 25.0428 36.9564 25.0428C36.8238 25.0428 36.7155 25.1503 36.7155 25.2818C36.7155 25.4131 36.4715 25.691 36.1732 25.8993C35.8748 26.1074 35.5707 26.3754 35.4973 26.4947C35.4238 26.6141 35.2599 26.7117 35.1331 26.7117C35.0061 26.7117 34.8546 26.8619 34.7963 27.0455C34.7381 27.229 34.592 27.3792 34.4719 27.3792C34.3517 27.3792 34.0889 27.7736 33.8878 28.2554C33.4597 29.2813 32.8299 30.5977 32.7097 30.717C32.6636 30.7629 32.401 31.1384 32.1261 31.5515C31.8512 31.9645 31.5885 32.34 31.5425 32.3859C31.078 32.8477 31.0336 33.0418 31.2214 33.7878C31.3277 34.21 31.4724 34.5555 31.5428 34.5555C31.7393 34.5555 32.0899 36.6471 31.9614 37.0518C31.8554 37.3859 30.1999 39.1219 29.0871 40.066C28.8145 40.2973 28.5607 40.5601 28.523 40.6501C28.416 40.9061 26.8394 42.0655 26.5984 42.0655C26.4796 42.0655 26.1763 42.4221 25.9245 42.8582C25.6727 43.2943 25.3998 43.6971 25.3184 43.7535C25.2368 43.8099 25.0819 44.0331 24.9741 44.2492C24.8329 44.5322 24.6228 44.6501 24.2236 44.6703C23.7326 44.695 23.6804 44.6572 23.7671 44.3413C24.0847 43.1864 24.073 42.7615 23.7174 42.5394C23.5233 42.4181 23.3644 42.1936 23.3644 42.0406C23.3644 41.8876 23.0265 41.4146 22.6134 40.9895C22.2004 40.5646 21.8624 40.0696 21.8624 39.8896C21.8624 39.7095 21.8054 39.5621 21.7356 39.5621C21.4422 39.5621 20.6942 38.685 20.6942 38.3408C20.6942 38.1354 20.544 37.8388 20.3604 37.6816C19.9332 37.3158 19.9332 36.7123 20.3604 36.3465C20.544 36.1893 20.6954 36.1164 20.6967 36.1843C20.6982 36.2522 20.7545 36.2327 20.8219 36.1409C20.9474 35.97 21.4245 35.6745 22.2379 35.2636C22.4903 35.1361 22.6969 34.962 22.6969 34.8771C22.6969 34.7919 22.7908 34.7222 22.9055 34.7222C23.0974 34.722 23.4047 34.4969 24.528 33.5334C24.755 33.3388 25.3744 32.8736 25.9048 32.4996L26.8691 31.8195V30.8739V29.9283L25.6174 29.7265C24.929 29.6154 24.3658 29.468 24.3658 29.3989C24.3658 29.3297 23.9153 29.0536 23.3648 28.7851C22.8144 28.5168 22.3638 28.2506 22.3634 28.1937C22.3633 28.1368 22.0252 27.9956 21.6121 27.8799C21.1991 27.7643 20.8611 27.6127 20.8611 27.543C20.8611 27.4734 20.5794 27.3652 20.2353 27.3028C19.8911 27.2402 19.309 27.0892 18.9419 26.9672C18.5747 26.845 17.8237 26.691 17.273 26.6251C16.2613 26.5037 15.6875 26.1892 15.6875 25.7561C15.6875 25.4959 15.2715 25.0138 15.151 25.1343C15.1094 25.176 14.8746 24.9846 14.6291 24.7092C14.3838 24.4337 14.0636 24.2084 13.9174 24.2084C13.7713 24.2084 13.4152 24.0995 13.126 23.9667C12.8368 23.8337 12.3823 23.7023 12.1163 23.6746C11.8489 23.6468 11.5502 23.4781 11.4487 23.2975C11.1415 22.7511 10.9341 22.5849 10.4172 22.4714C10.1448 22.4116 9.72127 22.1112 9.47611 21.8038C9.19157 21.4472 8.82608 21.2067 8.46627 21.1391C8.05038 21.0612 7.83176 20.8916 7.6335 20.4931C7.37966 19.9832 7.3638 20.2262 7.35379 24.8052C7.34227 30.0742 7.57358 32.6456 8.17905 33.9745C8.3618 34.3757 8.51133 34.7833 8.51133 34.8801C8.51133 34.9769 8.57909 35.0561 8.66186 35.0561C8.74464 35.0561 8.891 35.2814 8.98696 35.5568C9.08292 35.8322 9.24047 36.0575 9.3371 36.0575C9.43372 36.0575 9.51266 36.1611 9.51266 36.2878C9.51266 36.4832 10.0959 37.3043 11.1816 38.6377C11.5404 39.0785 14.8801 42.4174 15.3713 42.8265C15.5984 43.0156 16.159 43.4667 16.6171 43.8288C17.0752 44.191 17.5604 44.5795 17.6952 44.6923C18.5686 45.4229 19.0133 45.737 19.1745 45.737C19.276 45.737 19.3591 45.8146 19.3591 45.9092C19.3591 46.004 19.4934 46.1354 19.6578 46.2013C19.8221 46.2672 20.4177 46.6476 20.9816 47.0466C21.5453 47.4456 22.0597 47.7584 22.1245 47.7417C22.1894 47.7248 22.2883 47.7741 22.3444 47.851C22.434 47.9738 22.8396 48.2462 24.1154 49.0406C24.299 49.1549 24.6882 49.3583 24.9803 49.4928C25.2723 49.6274 25.5584 49.8136 25.6159 49.9067C25.7641 50.1465 26.3038 50.1168 26.5665 49.8543C26.7982 49.6225 27.4093 49.2669 28.3294 48.8283C28.6278 48.6859 28.8718 48.5134 28.8718 48.4446C28.8718 48.3198 29.1375 48.1592 30.1652 47.6632C30.4636 47.5192 30.7075 47.3456 30.7075 47.2776C30.7075 47.2093 30.9142 47.0588 31.1665 46.9429C31.6097 46.7397 34.8082 44.3974 36.2466 43.2228C37.21 42.4361 41.0638 38.5808 41.4615 38.0059C41.7526 37.585 42.0516 37.202 42.5543 36.6062C42.6481 36.4949 42.817 36.1945 42.9295 35.9386C43.042 35.6826 43.1793 35.4358 43.2347 35.3899C43.4063 35.2479 44.2255 33.4209 44.2255 33.1806C44.2255 33.0556 44.3195 32.8595 44.4341 32.7449C44.5909 32.5883 44.6553 31.1164 44.6932 26.8287C44.7529 20.0765 44.7103 18.4953 44.4759 18.7618ZM65.9439 29.9243C65.8692 30.1309 65.1814 32.7968 64.4156 35.8488C63.088 41.1394 63.005 41.3979 62.6362 41.3979H62.2495V43.9934V46.589L63.1257 46.5384L64.0019 46.488L64.1472 45.0277L64.2926 43.5675H67.5893H70.886L70.9903 44.089C71.0477 44.3759 71.0958 44.9578 71.0971 45.3824C71.1008 46.4655 71.2296 46.6012 72.1956 46.5399L73.0139 46.488L73.0599 43.9545L73.1058 41.4209L72.6539 41.3677L72.2018 41.3145L70.9252 35.7087C70.2233 32.6256 69.601 29.9782 69.5426 29.8258C69.4533 29.5932 69.1677 29.5488 67.758 29.5488C66.1691 29.5488 66.0725 29.5688 65.9439 29.9243ZM67.345 32.4276C67.3078 32.5424 66.8517 34.5513 66.3315 36.8919C65.8111 39.2325 65.3515 41.2038 65.3098 41.2727C65.268 41.3417 66.216 41.3979 67.4164 41.3979C69.5931 41.3979 69.5988 41.3969 69.5162 41.0224C69.3595 40.3106 67.7569 32.3527 67.7569 32.2859C67.7569 32.1201 67.4054 32.241 67.345 32.4276ZM76.6595 33.078C75.7121 33.2908 74.5673 34.3292 74.1664 35.3395C73.9085 35.9892 73.8483 36.5698 73.8483 38.4058C73.8483 40.5955 73.865 40.7031 74.3511 41.6536C75.0951 43.1087 75.9204 43.6335 77.5751 43.7046C79.4489 43.7851 80.5237 43.212 81.271 41.7338C82.2677 39.7626 82.1176 36.0628 80.98 34.562C80.3207 33.6921 79.9483 33.42 79.0332 33.1392C78.121 32.8592 77.6842 32.8479 76.6595 33.078ZM101.215 33.1094C100.251 33.4253 99.7281 33.8106 99.2201 34.5783C97.9349 36.5204 98.0886 40.8887 99.4988 42.4949C100.289 43.3946 101.094 43.735 102.421 43.7307C105.21 43.7217 106.511 42.0104 106.524 38.334C106.531 36.3725 106.241 35.2891 105.456 34.3367C104.483 33.1554 102.672 32.6314 101.215 33.1094ZM111.732 33.2382C111.548 33.3447 111.192 33.6237 110.939 33.858L110.48 34.2841V33.7522V33.2204H109.396H108.311V40.0628V46.9052H109.479H110.647V44.8912V42.8772L111.174 43.2525C111.501 43.4848 112.03 43.6551 112.564 43.6993C114.863 43.8901 116.324 41.8041 116.319 38.3373C116.316 35.8761 115.78 34.495 114.437 33.4922C113.908 33.0977 112.243 32.9413 111.732 33.2382ZM83.6113 38.3939V43.5675H84.7795H85.9477V41.9323C85.9477 40.3083 85.9519 40.2916 86.5669 39.457L87.1861 38.6167L88.1664 41.092L89.1465 43.5675H90.3843C91.0651 43.5675 91.622 43.5342 91.622 43.4935C91.622 43.4528 91.0502 42.1199 90.3514 40.5312C89.6527 38.9426 89.0087 37.4413 88.9204 37.1948C88.7762 36.7924 88.8718 36.598 89.8571 35.2918L90.9544 33.837V34.4466V35.0561H92.1226H93.2908V39.3118V43.5675H94.4591H95.6273V39.3118V35.0561H96.7955H97.9637V34.1382V33.2204L93.4995 33.2205H89.0352L87.5332 35.3302L86.0312 37.4396L85.9845 35.33L85.9377 33.2204H84.7745H83.6113V38.3939ZM77.0586 35.055C76.5015 35.4932 76.2191 36.7035 76.2368 38.577C76.2627 41.3286 76.8319 42.235 78.2927 41.8508C79.0978 41.6391 79.3556 40.7802 79.3556 38.3105C79.3556 35.9116 79.1404 35.1881 78.3354 34.8821C77.734 34.6534 77.5347 34.6805 77.0586 35.055ZM101.822 34.9945C101.267 35.3834 100.97 36.2182 100.862 37.6933C100.67 40.3303 101.276 41.9541 102.451 41.9541C103.462 41.9541 103.939 41.0927 104.086 39.0027C104.211 37.209 103.924 35.8171 103.299 35.1918C102.763 34.6563 102.378 34.6049 101.822 34.9945ZM111.716 34.9617C110.915 35.3081 110.647 36.185 110.647 38.4558C110.647 40.5543 110.813 41.2492 111.405 41.6372C112.316 42.2343 113.31 41.754 113.655 40.5496C113.868 39.8095 113.864 36.812 113.649 36.0408C113.363 35.0081 112.597 34.5807 111.716 34.9617Z" fill="#058E00"/>
</svg>
